<?xml version="1.0" encoding="UTF-8"?>
<svg xmlns="http://www.w3.org/2000/svg" xmlns:xlink="http://www.w3.org/1999/xlink" width="80pt" height="80pt" viewBox="0 0 80 80" version="1.1">
<g id="surface1">
<path style=" stroke:none;fill-rule:evenodd;fill:rgb(100%,100%,100%);fill-opacity:1;" d="M 10.578125 52.46875 L 0.046875 23.1875 C -0.105469 22.761719 0.121094 22.289062 0.546875 22.132812 C 14.390625 17.15625 29.992188 12.523438 43.328125 6.832031 C 43.925781 6.457031 44.390625 6.828125 44.648438 7.539062 L 61.195312 50.1875 L 65.6875 62.679688 C 65.839844 63.109375 65.617188 63.585938 65.191406 63.734375 L 33.53125 75.121094 L 21.191406 79.558594 C 20.765625 79.714844 20.292969 79.492188 20.136719 79.066406 Z M 10.578125 52.46875 "/>
<path style=" stroke:none;fill-rule:evenodd;fill:rgb(100%,100%,100%);fill-opacity:1;" d="M 19.355469 42.753906 L 14.097656 12.085938 C 14.019531 11.636719 14.324219 11.210938 14.769531 11.132812 L 50.980469 4.925781 L 59.273438 3.558594 C 59.726562 3.363281 60.464844 3.589844 60.640625 4.605469 L 69.597656 49.339844 L 71.839844 62.425781 C 71.917969 62.871094 71.613281 63.300781 71.171875 63.378906 L 38.011719 69.0625 L 25.082031 71.285156 C 24.636719 71.355469 24.207031 71.054688 24.128906 70.609375 Z M 19.355469 42.753906 "/>
<path style=" stroke:none;fill-rule:evenodd;fill:rgb(100%,100%,100%);fill-opacity:1;" d="M 29.503906 33.710938 L 29.503906 63.195312 C 29.503906 63.667969 29.886719 64.058594 30.359375 64.058594 L 79.144531 64.058594 C 79.613281 64.058594 80 63.667969 80 63.195312 L 80 10.679688 L 71.289062 10.679688 C 70.449219 10.679688 68.707031 10.800781 68.707031 8.894531 L 68.691406 0.390625 L 30.359375 0.390625 C 29.886719 0.390625 29.503906 0.777344 29.503906 1.25 Z M 29.503906 33.710938 "/>
<path style=" stroke:none;fill-rule:evenodd;fill:rgb(70.980392%,76.862745%,81.176471%);fill-opacity:1;" d="M 14.96875 17.171875 C 10.0625 18.824219 5.203125 20.460938 0.546875 22.132812 C 0.121094 22.289062 -0.105469 22.761719 0.046875 23.1875 L 10.578125 52.46875 L 20.136719 79.066406 C 20.292969 79.492188 20.765625 79.714844 21.191406 79.558594 L 33.53125 75.121094 L 61.652344 65.011719 Z M 14.96875 17.171875 "/>
<path style=" stroke:none;fill-rule:evenodd;fill:rgb(84.313725%,90.588235%,92.54902%);fill-opacity:1;" d="M 29.503906 8.609375 L 14.769531 11.132812 C 14.324219 11.210938 14.019531 11.636719 14.097656 12.085938 L 14.96875 17.171875 L 19.355469 42.753906 L 24.128906 70.609375 C 24.207031 71.054688 24.636719 71.355469 25.082031 71.285156 L 38.011719 69.0625 L 67.214844 64.058594 L 64.304688 64.058594 Z M 29.503906 8.609375 "/>
<path style=" stroke:none;fill-rule:evenodd;fill:rgb(92.941176%,95.294118%,95.686275%);fill-opacity:1;" d="M 80 49.34375 L 80 10.546875 C 80 10.300781 79.894531 10.257812 79.515625 9.886719 L 70.113281 0.917969 C 69.667969 0.496094 69.59375 0.390625 69.332031 0.390625 L 30.359375 0.390625 C 29.886719 0.390625 29.503906 0.777344 29.503906 1.25 L 29.503906 63.195312 C 29.503906 63.667969 29.886719 64.058594 30.359375 64.058594 L 79.144531 64.058594 C 79.613281 64.058594 80 63.667969 80 63.195312 Z M 80 49.34375 "/>
<path style=" stroke:none;fill-rule:evenodd;fill:rgb(70.980392%,76.862745%,81.176471%);fill-opacity:1;" d="M 29.503906 8.609375 L 26.050781 9.199219 L 26.050781 66.363281 C 26.050781 66.839844 26.433594 67.226562 26.90625 67.226562 L 48.734375 67.226562 L 61.652344 65.011719 L 67.214844 64.058594 L 30.359375 64.058594 C 29.886719 64.058594 29.503906 63.667969 29.503906 63.195312 C 29.503906 45 29.503906 26.800781 29.503906 8.609375 Z M 29.503906 8.609375 "/>
<path style=" stroke:none;fill-rule:evenodd;fill:rgb(60.392157%,68.627451%,71.764706%);fill-opacity:1;" d="M 19.355469 42.753906 L 14.96875 17.171875 C 13.78125 17.570312 12.597656 17.96875 11.421875 18.371094 L 11.964844 21.546875 L 16.355469 47.128906 L 21.132812 74.984375 C 21.203125 75.429688 21.636719 75.730469 22.078125 75.65625 L 35.007812 73.4375 L 41.140625 72.386719 L 59.617188 65.738281 L 59.398438 65.394531 L 48.734375 67.226562 L 38.011719 69.0625 L 25.082031 71.285156 C 24.636719 71.355469 24.207031 71.054688 24.128906 70.609375 Z M 19.355469 42.753906 "/>
<path style=" stroke:none;fill-rule:evenodd;fill:rgb(84.313725%,90.588235%,92.54902%);fill-opacity:1;" d="M 80 49.34375 L 80 10.679688 C 80 10.21875 79.847656 10.210938 79.515625 9.886719 L 70.113281 0.917969 C 69.667969 0.496094 69.59375 0.390625 69.332031 0.390625 L 59.148438 0.390625 C 70.808594 16 71.472656 44.132812 62.820312 61.695312 C 62.421875 62.511719 62.007812 63.296875 61.570312 64.058594 L 79.144531 64.058594 C 79.613281 64.058594 80 63.667969 80 63.195312 Z M 80 49.34375 "/>
<path style=" stroke:none;fill-rule:evenodd;fill:rgb(100%,100%,100%);fill-opacity:1;" d="M 68.707031 8.894531 C 68.707031 10.800781 70.449219 10.679688 71.289062 10.679688 L 80 10.679688 L 80 10.546875 C 80 10.300781 79.894531 10.257812 79.515625 9.886719 L 70.113281 0.917969 C 69.667969 0.496094 69.59375 0.390625 69.332031 0.390625 L 68.691406 0.390625 Z M 68.707031 8.894531 "/>
<path style=" stroke:none;fill-rule:evenodd;fill:rgb(70.980392%,76.862745%,81.176471%);fill-opacity:1;" d="M 79.515625 9.886719 L 70.113281 0.917969 C 69.667969 0.496094 69.59375 0.390625 69.332031 0.390625 L 68.691406 0.390625 L 68.707031 8.894531 C 68.707031 10.800781 70.449219 10.679688 71.289062 10.679688 L 80 10.679688 L 80 10.546875 C 80 10.300781 79.894531 10.257812 79.515625 9.886719 Z M 79.515625 9.886719 "/>
<path style=" stroke:none;fill-rule:nonzero;fill:rgb(60.392157%,68.627451%,71.764706%);fill-opacity:1;" d="M 72.253906 19.140625 L 37.734375 19.140625 C 37.070312 19.140625 36.527344 18.601562 36.527344 17.933594 C 36.527344 17.265625 37.070312 16.726562 37.734375 16.726562 L 72.253906 16.726562 C 72.917969 16.726562 73.460938 17.265625 73.460938 17.933594 C 73.460938 18.601562 72.917969 19.140625 72.253906 19.140625 Z M 72.253906 19.140625 "/>
<path style=" stroke:none;fill-rule:nonzero;fill:rgb(60.392157%,68.627451%,71.764706%);fill-opacity:1;" d="M 72.253906 27.71875 L 37.734375 27.71875 C 37.070312 27.71875 36.527344 27.179688 36.527344 26.511719 C 36.527344 25.847656 37.070312 25.304688 37.734375 25.304688 L 72.253906 25.304688 C 72.917969 25.304688 73.460938 25.847656 73.460938 26.511719 C 73.460938 27.179688 72.917969 27.71875 72.253906 27.71875 Z M 72.253906 27.71875 "/>
<path style=" stroke:none;fill-rule:nonzero;fill:rgb(60.392157%,68.627451%,71.764706%);fill-opacity:1;" d="M 72.253906 36.300781 L 37.734375 36.300781 C 37.070312 36.300781 36.527344 35.757812 36.527344 35.09375 C 36.527344 34.425781 37.070312 33.882812 37.734375 33.882812 L 72.253906 33.882812 C 72.917969 33.882812 73.460938 34.425781 73.460938 35.09375 C 73.460938 35.757812 72.917969 36.300781 72.253906 36.300781 Z M 72.253906 36.300781 "/>
<path style=" stroke:none;fill-rule:nonzero;fill:rgb(60.392157%,68.627451%,71.764706%);fill-opacity:1;" d="M 72.253906 44.878906 L 37.734375 44.878906 C 37.070312 44.878906 36.527344 44.339844 36.527344 43.671875 C 36.527344 43.003906 37.070312 42.464844 37.734375 42.464844 L 72.253906 42.464844 C 72.917969 42.464844 73.460938 43.003906 73.460938 43.671875 C 73.460938 44.339844 72.917969 44.878906 72.253906 44.878906 Z M 72.253906 44.878906 "/>
<path style=" stroke:none;fill-rule:nonzero;fill:rgb(60.392157%,68.627451%,71.764706%);fill-opacity:1;" d="M 72.253906 53.457031 L 37.734375 53.457031 C 37.070312 53.457031 36.527344 52.917969 36.527344 52.25 C 36.527344 51.582031 37.070312 51.042969 37.734375 51.042969 L 72.253906 51.042969 C 72.917969 51.042969 73.460938 51.582031 73.460938 52.25 C 73.460938 52.917969 72.917969 53.457031 72.253906 53.457031 Z M 72.253906 53.457031 "/>
</g>
</svg>
